<?xml version="1.0" encoding="utf-8"?>
<!-- Generator: Adobe Illustrator 25.0.0, SVG Export Plug-In . SVG Version: 6.00 Build 0)  -->
<svg version="1.1" id="Layer_1" xmlns="http://www.w3.org/2000/svg" xmlns:xlink="http://www.w3.org/1999/xlink" x="0px" y="0px"
	 viewBox="0 0 460 91" style="enable-background:new 0 0 460 91;" xml:space="preserve">
<style type="text/css">
	.st0{fill:#CE181E;}
	.st1{stroke:#000000;stroke-miterlimit:10;}
</style>
<g>
	<g>
		<path d="M50.89,38.9h0.12l4.95-20.91H69.9L58.96,51.83H44.78L39.7,32.18h-0.12l-5.01,19.65H20.39L9.45,17.99h13.94l4.95,20.91
			h0.12l5.26-20.91h11.92L50.89,38.9z"/>
		<path d="M83.78,41.72c0,2.91,2.93,4.84,6.3,4.84c2.02,0,3.85-0.71,4.77-2.16H107c-2.2,6.11-10.27,8.13-17.72,8.13
			c-10.27,0-18.21-4.51-18.21-12.78c0-8.08,7.88-13.25,18.15-13.25c11.86,0,19.01,6.3,18.82,15.23H83.78z M95.33,36.74
			c0-2.26-2.63-4.28-5.62-4.28c-3.79,0-5.93,1.65-5.93,4.28H95.33z"/>
		<path d="M135.54,51.83l-0.61-2.63c-3.61,2.59-7.27,3.34-12.04,3.34c-6.05,0-11.43-2.3-11.43-7.43c0-11.19,22.8-6.11,22.8-10.72
			c0-1.79-2.81-2.02-4.16-2.02c-1.77,0-4.16,0.28-4.46,2.4h-12.22c0-5.22,4.83-8.27,17.48-8.27c15.16,0,16.07,4.32,16.07,10.2v11.52
			c0,1.41,0.06,2.11,1.71,3.15v0.47H135.54z M134.26,40.92c-4.16,1.55-9.66,0.8-9.66,3.99c0,1.22,1.53,2.07,4.03,2.07
			C133.1,46.99,134.56,44.31,134.26,40.92z"/>
		<path d="M174.78,51.83c-16.69,0.71-18.7-0.19-18.7-8.69V32.84h-4.52V27.2h4.71v-7.66h12.53v7.66h6.11v5.64h-6.11v8.93
			c0,2.26,0.43,3.05,3.97,3.05h2.02V51.83z"/>
		<path d="M180.76,17.99h12.71V30.3c2.57-2.49,5.44-3.81,9.72-3.81c8.43,0,12.41,3.81,12.41,10.58v14.76h-12.71V38.81
			c0-2.44-0.86-4.61-4.46-4.61c-3.91,0-4.95,1.93-4.95,5.08v12.55h-12.71V17.99z"/>
		<path d="M233.2,41.72c0,2.91,2.93,4.84,6.3,4.84c2.02,0,3.85-0.71,4.77-2.16h12.16c-2.2,6.11-10.27,8.13-17.72,8.13
			c-10.27,0-18.21-4.51-18.21-12.78c0-8.08,7.88-13.25,18.15-13.25c11.86,0,19.01,6.3,18.82,15.23H233.2z M244.75,36.74
			c0-2.26-2.63-4.28-5.62-4.28c-3.79,0-5.93,1.65-5.93,4.28H244.75z"/>
		<path d="M262.53,27.2h11.55v4.98h0.12c1.77-3.85,4.89-5.69,9.84-5.69c0.55,0,1.1,0.09,1.65,0.14v9.78
			c-0.86-0.09-1.77-0.28-2.63-0.28c-5.2,0-7.82,1.88-7.82,7.19v8.51h-12.71V27.2z"/>
		<path class="st0" d="M288.38,17.99h40.34v8.88h-12.96v24.96h-14.42V26.87h-12.96V17.99z"/>
		<path class="st0" d="M338.44,41.72c0,2.91,2.93,4.84,6.29,4.84c2.02,0,3.85-0.71,4.77-2.16h12.16c-2.2,6.11-10.27,8.13-17.72,8.13
			c-10.27,0-18.21-4.51-18.21-12.78c0-8.08,7.88-13.25,18.15-13.25c11.86,0,19.01,6.3,18.83,15.23H338.44z M349.99,36.74
			c0-2.26-2.63-4.28-5.62-4.28c-3.79,0-5.93,1.65-5.93,4.28H349.99z"/>
		<path class="st0" d="M389.47,36.6c-0.06-1.08-0.55-1.93-1.34-2.54c-0.8-0.66-1.89-0.99-3.3-0.99c-4.77,0-5.56,3.81-5.56,6.72
			c0,3.71,1.83,6.16,5.56,6.16c3.3,0,4.58-1.74,4.95-3.67h12.84c-1.1,7.47-8.92,10.25-17.79,10.25c-10.33,0-18.27-4.47-18.27-12.78
			c0-8.41,7.7-13.25,18.27-13.25c8.56,0,16.62,2.82,17.54,10.11H389.47z"/>
		<path class="st0" d="M408.29,17.99h12.71V30.3c2.57-2.49,5.44-3.81,9.72-3.81c8.43,0,12.41,3.81,12.41,10.58v14.76h-12.71V38.81
			c0-2.44-0.86-4.61-4.46-4.61c-3.91,0-4.95,1.93-4.95,5.08v12.55h-12.71V17.99z"/>
	</g>
	<path d="M446.57,29.09c-3.32,0-6.27-2.29-6.27-6.23c0-3.94,2.95-6.23,6.27-6.23c3.3,0,6.25,2.29,6.25,6.23
		C452.82,26.8,449.87,29.09,446.57,29.09z M446.57,18.07c-2.47,0-4.47,1.91-4.47,4.78c0,2.87,2,4.8,4.47,4.78v0.02
		c2.41,0,4.45-1.93,4.45-4.8C451.03,19.98,448.98,18.07,446.57,18.07z M445.53,26.2h-1.43v-6.71h2.51c1.73,0,2.75,0.5,2.75,2.03
		c0,1.24-0.73,1.68-1.62,1.75l1.72,2.94h-1.7l-1.55-2.82h-0.68V26.2z M446.8,22.24c0.64,0,1.02-0.13,1.02-0.87
		c0-0.69-0.74-0.74-1.29-0.74h-1.01v1.62H446.8z"/>
</g>
<g>
	<path d="M149.62,76.86h-6.22l-0.88,2.4h-3.25l5.38-13.91h3.71l5.36,13.91h-3.23L149.62,76.86z M144.2,74.29h4.61l-2.29-6.38
		L144.2,74.29z"/>
	<path d="M161.47,77.98c-0.69,0.77-1.9,1.52-3.55,1.52c-2.21,0-3.25-1.21-3.25-3.17v-7.15h2.65v6.11c0,1.4,0.73,1.86,1.86,1.86
		c1.02,0,1.84-0.56,2.29-1.15v-6.82h2.65v10.07h-2.65V77.98z"/>
	<path d="M167.27,76.75V71.5h-1.67v-2.32h1.67v-2.75h2.67v2.75h2.04v2.32h-2.04v4.55c0,0.63,0.33,1.11,0.92,1.11
		c0.4,0,0.77-0.15,0.92-0.29l0.56,2c-0.4,0.35-1.11,0.65-2.21,0.65C168.28,79.51,167.27,78.55,167.27,76.75z"/>
	<path d="M173.16,74.21c0-2.86,2-5.28,5.32-5.28c3.34,0,5.34,2.42,5.34,5.28c0,2.88-2,5.3-5.34,5.3
		C175.16,79.51,173.16,77.09,173.16,74.21z M181.06,74.21c0-1.56-0.94-2.92-2.59-2.92s-2.57,1.36-2.57,2.92
		c0,1.58,0.92,2.94,2.57,2.94S181.06,75.79,181.06,74.21z"/>
	<path d="M187.05,76.11c0.92,0,1.69,0.77,1.69,1.69s-0.77,1.69-1.69,1.69c-0.92,0-1.69-0.77-1.69-1.69S186.13,76.11,187.05,76.11z"
		/>
	<path d="M211.31,73.42h-6.57v5.84h-2.96V65.35h2.96v5.46h6.57v-5.46h2.98v13.91h-2.98V73.42z"/>
	<path d="M216.32,74.21c0-2.86,2-5.28,5.32-5.28c3.34,0,5.34,2.42,5.34,5.28c0,2.88-2,5.3-5.34,5.3
		C218.32,79.51,216.32,77.09,216.32,74.21z M224.22,74.21c0-1.56-0.94-2.92-2.59-2.92s-2.57,1.36-2.57,2.92
		c0,1.58,0.92,2.94,2.57,2.94S224.22,75.79,224.22,74.21z"/>
	<path d="M241.43,72.9c0-0.94-0.42-1.61-1.5-1.61c-0.94,0-1.71,0.63-2.09,1.17v6.8h-2.67V72.9c0-0.94-0.42-1.61-1.5-1.61
		c-0.92,0-1.69,0.63-2.09,1.19v6.78h-2.65V69.18h2.65v1.31c0.42-0.6,1.75-1.56,3.29-1.56c1.48,0,2.42,0.69,2.79,1.84
		c0.58-0.92,1.92-1.84,3.46-1.84c1.86,0,2.96,0.98,2.96,3.05v7.28h-2.67V72.9z"/>
	<path d="M251.28,68.93c3,0,5.05,2.25,5.05,5.55v0.58h-7.49c0.17,1.27,1.19,2.34,2.9,2.34c0.94,0,2.04-0.38,2.69-1l1.17,1.71
		c-1.02,0.94-2.59,1.4-4.15,1.4c-3.07,0-5.38-2.06-5.38-5.3C246.07,71.29,248.21,68.93,251.28,68.93z M248.8,73.27h4.96
		c-0.06-0.96-0.73-2.23-2.48-2.23C249.63,71.04,248.92,72.27,248.8,73.27z"/>
	<path d="M259.52,76.11c0.92,0,1.69,0.77,1.69,1.69s-0.77,1.69-1.69,1.69c-0.92,0-1.69-0.77-1.69-1.69S258.6,76.11,259.52,76.11z"/>
	<path d="M274.25,65.35h6.51c3.02,0,4.67,2.04,4.67,4.48c0,2.42-1.67,4.44-4.67,4.44h-3.55v4.98h-2.96V65.35z M280.36,67.89h-3.15
		v3.84h3.15c1.17,0,2.04-0.75,2.04-1.92C282.4,68.66,281.53,67.89,280.36,67.89z"/>
	<path d="M291.42,68.93c3,0,5.05,2.25,5.05,5.55v0.58h-7.49c0.17,1.27,1.19,2.34,2.9,2.34c0.94,0,2.04-0.38,2.69-1l1.17,1.71
		c-1.02,0.94-2.59,1.4-4.15,1.4c-3.07,0-5.38-2.06-5.38-5.3C286.2,71.29,288.35,68.93,291.42,68.93z M288.93,73.27h4.96
		c-0.06-0.96-0.73-2.23-2.48-2.23C289.77,71.04,289.06,72.27,288.93,73.27z"/>
	<path d="M298.9,76.75V71.5h-1.67v-2.32h1.67v-2.75h2.67v2.75h2.04v2.32h-2.04v4.55c0,0.63,0.33,1.11,0.92,1.11
		c0.4,0,0.77-0.15,0.92-0.29l0.56,2c-0.4,0.35-1.11,0.65-2.21,0.65C299.91,79.51,298.9,78.55,298.9,76.75z"/>
	<path d="M306.79,76.11c0.92,0,1.69,0.77,1.69,1.69s-0.77,1.69-1.69,1.69c-0.92,0-1.69-0.77-1.69-1.69S305.87,76.11,306.79,76.11z"
		/>
	<path d="M321.52,65.35h9.84v2.54h-6.88v3.02h6.74v2.54h-6.74v5.8h-2.96V65.35z"/>
	<path d="M333.1,66.12c0-0.88,0.73-1.58,1.59-1.58c0.88,0,1.58,0.71,1.58,1.58c0,0.88-0.71,1.58-1.58,1.58
		C333.83,67.7,333.1,66.99,333.1,66.12z M333.37,69.18h2.65v10.07h-2.65V69.18z"/>
	<path d="M345.44,73.17c0-1.4-0.73-1.88-1.86-1.88c-1.04,0-1.86,0.58-2.29,1.19v6.78h-2.65V69.18h2.65v1.31
		c0.65-0.77,1.88-1.56,3.52-1.56c2.21,0,3.27,1.25,3.27,3.21v7.11h-2.65V73.17z"/>
	<path d="M357.65,77.98c-0.79,0.98-1.9,1.52-3.11,1.52c-2.54,0-4.46-1.92-4.46-5.28c0-3.3,1.9-5.3,4.46-5.3
		c1.19,0,2.32,0.52,3.11,1.54v-5.13h2.67v13.91h-2.67V77.98z M357.65,72.44c-0.46-0.67-1.4-1.15-2.29-1.15
		c-1.5,0-2.54,1.19-2.54,2.94c0,1.73,1.04,2.92,2.54,2.92c0.9,0,1.84-0.48,2.29-1.15V72.44z"/>
	<path d="M372.23,73.56l-5.36-8.22h3.38l3.46,5.59l3.42-5.59h3.38l-5.32,8.22v5.69h-2.96V73.56z"/>
	<path d="M378.51,74.21c0-2.86,2-5.28,5.32-5.28c3.34,0,5.34,2.42,5.34,5.28c0,2.88-2,5.3-5.34,5.3
		C380.51,79.51,378.51,77.09,378.51,74.21z M386.41,74.21c0-1.56-0.94-2.92-2.59-2.92c-1.65,0-2.57,1.36-2.57,2.92
		c0,1.58,0.92,2.94,2.57,2.94C385.48,77.15,386.41,75.79,386.41,74.21z"/>
	<path d="M397.93,77.98c-0.69,0.77-1.9,1.52-3.55,1.52c-2.21,0-3.25-1.21-3.25-3.17v-7.15h2.65v6.11c0,1.4,0.73,1.86,1.86,1.86
		c1.02,0,1.84-0.56,2.29-1.15v-6.82h2.65v10.07h-2.65V77.98z"/>
	<path d="M403.21,69.18h2.65v1.38c0.71-0.9,1.96-1.61,3.21-1.61v2.59c-0.19-0.04-0.44-0.06-0.73-0.06c-0.88,0-2.04,0.48-2.48,1.13
		v6.65h-2.65V69.18z"/>
	<path d="M416.12,65.35h9.84v2.54h-6.88v3.02h6.74v2.54h-6.74v5.8h-2.96V65.35z"/>
	<path d="M427.7,66.12c0-0.88,0.73-1.58,1.59-1.58c0.88,0,1.58,0.71,1.58,1.58c0,0.88-0.71,1.58-1.58,1.58
		C428.43,67.7,427.7,66.99,427.7,66.12z M427.97,69.18h2.65v10.07h-2.65V69.18z"/>
	<path d="M433.77,76.75V71.5h-1.67v-2.32h1.67v-2.75h2.67v2.75h2.04v2.32h-2.04v4.55c0,0.63,0.33,1.11,0.92,1.11
		c0.4,0,0.77-0.15,0.92-0.29l0.56,2c-0.4,0.35-1.11,0.65-2.21,0.65C434.77,79.51,433.77,78.55,433.77,76.75z"/>
	<path d="M441.65,76.11c0.92,0,1.69,0.77,1.69,1.69s-0.77,1.69-1.69,1.69c-0.92,0-1.69-0.77-1.69-1.69S440.74,76.11,441.65,76.11z"
		/>
</g>
</svg>
